<svg xmlns="http://www.w3.org/2000/svg" xmlns:xlink="http://www.w3.org/1999/xlink" width="500" zoomAndPan="magnify" viewBox="0 0 375 374.999991" height="500" preserveAspectRatio="xMidYMid meet" version="1.0"><defs><clipPath id="2c8d3d44f3"><path d="M 26.101562 60.726562 L 348.601562 60.726562 L 348.601562 314.226562 L 26.101562 314.226562 Z M 26.101562 60.726562 " clip-rule="nonzero"/></clipPath></defs><path fill="#48cf10" d="M 131.886719 194.632812 L 150.183594 183.757812 L 150.183594 161.441406 L 101.011719 180.324219 L 101.011719 306.21875 L 127.886719 306.21875 L 127.886719 196.921875 Z M 201.648438 244.414062 L 217.085938 244.414062 L 217.085938 259.867188 L 201.648438 259.867188 Z M 228.519531 123.101562 L 244.53125 123.101562 L 244.53125 138.550781 L 228.519531 138.550781 Z M 228.519531 147.707031 L 244.53125 147.707031 L 244.53125 163.160156 L 228.519531 163.160156 Z M 201.648438 219.808594 L 217.085938 219.808594 L 217.085938 235.261719 L 201.648438 235.261719 Z M 126.742188 122.53125 L 101.011719 131.683594 L 101.011719 156.292969 L 130.746094 145.417969 C 130.171875 137.40625 129.027344 129.394531 126.742188 122.53125 Z M 101.011719 115.089844 L 119.878906 108.222656 C 119.308594 107.078125 118.164062 105.933594 117.59375 104.789062 C 113.019531 97.921875 107.300781 92.203125 101.011719 87.625 Z M 51.265625 109.367188 L 78.140625 119.097656 L 78.140625 89.339844 C 67.847656 92.773438 58.125 100.210938 51.265625 109.367188 Z M 78.140625 160.296875 L 78.140625 141.984375 L 43.832031 129.394531 C 42.117188 134.546875 41.542969 140.269531 41.542969 146.5625 L 41.542969 147.136719 Z M 45.546875 171.167969 C 47.835938 176.890625 50.691406 183.1875 54.695312 188.335938 C 60.984375 196.921875 68.992188 204.929688 78.140625 210.652344 L 78.140625 183.1875 Z M 305.140625 306.21875 L 305.140625 102.5 L 274.265625 115.089844 L 274.265625 306.21875 Z M 189.066406 166.019531 L 240.527344 195.777344 L 244.53125 198.066406 L 244.53125 306.21875 L 251.394531 306.21875 L 251.394531 102.5 L 216.511719 82.472656 L 173.628906 108.222656 L 173.628906 170.597656 L 181.632812 166.019531 L 185.636719 163.730469 Z M 173.628906 306.21875 L 228.519531 306.21875 L 228.519531 206.648438 L 185.636719 181.46875 L 173.628906 188.335938 Z M 173.628906 306.21875 " fill-opacity="1" fill-rule="evenodd"/><g clip-path="url(#2c8d3d44f3)"><path fill="#1f3642" d="M 127.886719 314.226562 L 127.886719 196.921875 L 131.886719 194.632812 L 150.183594 183.757812 L 150.183594 153.429688 L 93.578125 175.175781 L 93.578125 314.226562 L 50.121094 314.226562 L 50.121094 298.777344 L 78.140625 298.777344 L 78.140625 227.820312 C 63.273438 220.953125 50.691406 210.082031 42.117188 196.921875 C 31.824219 182.613281 26.105469 164.875 26.105469 146.5625 C 26.105469 128.253906 31.824219 110.511719 42.117188 95.632812 C 51.835938 81.328125 66.132812 69.882812 83.285156 63.015625 L 86.144531 61.871094 L 89.003906 63.015625 C 106.15625 69.882812 120.453125 81.328125 130.171875 95.632812 C 139.320312 108.796875 144.46875 123.675781 145.609375 139.695312 L 150.183594 137.980469 L 150.183594 94.488281 L 154.1875 92.773438 L 205.648438 63.015625 L 209.652344 60.726562 L 213.082031 63.015625 L 262.828125 91.628906 L 266.832031 93.917969 L 320.582031 73.890625 L 320.582031 298.777344 L 348.597656 298.777344 L 348.597656 314.226562 L 305.140625 314.226562 L 305.140625 94.488281 L 266.832031 109.367188 L 266.832031 314.226562 L 251.394531 314.226562 L 251.394531 102.5 L 209.652344 78.46875 L 166.195312 103.644531 L 166.195312 175.175781 L 181.632812 166.019531 L 185.636719 163.730469 L 189.066406 166.019531 L 240.527344 195.777344 L 244.53125 198.066406 L 244.53125 314.226562 L 150.183594 314.226562 L 150.183594 202.070312 L 143.324219 206.074219 L 143.324219 314.226562 Z M 78.140625 176.890625 L 43.832031 164.304688 C 46.117188 172.886719 49.550781 180.898438 54.695312 188.335938 C 60.984375 196.921875 68.992188 204.929688 78.140625 210.652344 Z M 41.542969 147.136719 L 78.140625 160.296875 L 78.140625 135.691406 L 44.976562 123.675781 C 42.6875 130.539062 41.542969 138.550781 41.542969 146.5625 Z M 93.578125 117.953125 L 119.878906 108.222656 C 119.308594 107.078125 118.164062 105.933594 117.59375 104.789062 C 111.304688 95.632812 103.296875 88.195312 93.578125 82.472656 Z M 126.742188 122.53125 L 93.578125 133.972656 L 93.578125 159.152344 L 130.746094 145.417969 C 130.171875 137.40625 129.027344 129.394531 126.742188 122.53125 Z M 51.265625 109.367188 L 78.140625 119.097656 L 78.140625 82.472656 C 68.992188 88.195312 60.984375 95.632812 54.695312 104.789062 C 53.550781 106.507812 52.410156 107.652344 51.265625 109.367188 Z M 185.636719 181.46875 L 166.195312 192.914062 L 166.195312 298.777344 L 228.519531 298.777344 L 228.519531 206.648438 Z M 185.636719 181.46875 " fill-opacity="1" fill-rule="nonzero"/></g></svg>